<svg width="106.601" height="71.001" viewBox="0 0 106.601 71.001" xmlns="http://www.w3.org/2000/svg"><g id="svgGroup" stroke-linecap="round" fill-rule="evenodd" font-size="9pt" stroke="#000000" stroke-width="0.25mm" fill="#000000" style="stroke:#000000;stroke-width:0.25mm;fill:#000000"><path d="M 9.301 23.501 L 9.301 71.001 L 0.001 71.001 L 0.001 23.301 A 25.985 25.985 0 0 1 1.182 15.295 A 21.247 21.247 0 0 1 6.651 6.501 A 22.556 22.556 0 0 1 22.791 0.002 A 29.328 29.328 0 0 1 23.101 0.001 Q 30.459 0.001 35.334 2.531 A 16.168 16.168 0 0 1 39.351 5.451 Q 44.801 10.901 44.801 18.801 Q 44.801 28.901 35.401 33.301 L 35.401 33.701 A 19.79 19.79 0 0 1 41.994 36.876 Q 46.626 40.398 47.856 46.688 A 25.598 25.598 0 0 1 48.301 51.601 Q 48.301 71.001 25.401 71.001 L 12.901 71.001 L 12.901 62.201 L 25.301 62.201 A 27.023 27.023 0 0 0 28.89 61.979 Q 33.101 61.413 35.401 59.401 A 8.509 8.509 0 0 0 37.776 55.821 Q 38.29 54.405 38.484 52.65 A 20.522 20.522 0 0 0 38.601 50.401 A 13.502 13.502 0 0 0 38.194 46.984 A 9.269 9.269 0 0 0 35.151 42.101 A 11.714 11.714 0 0 0 30.645 39.796 Q 28.899 39.317 26.826 39.223 A 22.725 22.725 0 0 0 25.801 39.201 L 15.901 39.201 L 15.901 30.901 L 22.301 30.901 A 16.492 16.492 0 0 0 27.169 30.209 A 13.827 13.827 0 0 0 31.551 27.951 A 9.361 9.361 0 0 0 35.348 21.144 A 12.117 12.117 0 0 0 35.401 20.001 A 12.852 12.852 0 0 0 34.806 16.011 A 10.755 10.755 0 0 0 32.451 12.001 Q 29.501 8.801 22.901 8.801 A 15.67 15.67 0 0 0 18.31 9.444 A 12.508 12.508 0 0 0 13.101 12.551 Q 9.733 15.875 9.35 21.911 A 25.156 25.156 0 0 0 9.301 23.501 Z M 67.701 45.401 L 67.701 71.001 L 58.801 71.001 L 58.801 27.001 Q 58.801 16.201 65.751 8.601 A 22.981 22.981 0 0 1 82.51 1.023 A 30.909 30.909 0 0 1 83.701 1.001 L 106.601 1.001 L 106.601 71.001 L 97.201 71.001 L 97.201 9.801 L 83.701 9.801 Q 76.401 9.801 72.051 14.101 A 12.922 12.922 0 0 0 69.078 18.839 Q 68.306 20.899 67.967 23.465 A 33.172 33.172 0 0 0 67.701 27.801 L 67.701 36.301 Q 73.033 30.683 82.717 30.414 A 35.474 35.474 0 0 1 83.701 30.401 L 92.801 30.401 L 92.801 39.201 L 83.701 39.201 A 39.54 39.54 0 0 0 79.968 39.366 Q 78.113 39.543 76.546 39.907 A 17.463 17.463 0 0 0 74.251 40.601 A 15.334 15.334 0 0 0 69.404 43.635 A 19.464 19.464 0 0 0 67.701 45.401 Z" vector-effect="non-scaling-stroke"/></g></svg>